# xmcd CD database file
#
# Track frame offsets:
#	150
#	18962
#	51480
#
# Disc length: 935 seconds
#
# Revision: 0
# Processed by: cddbd v1.5PL3 Copyright (c) Steve Scherf et al.
# Submitted via: CDex 1.50
#
DISCID=1f03a503
DTITLE=Original Love - Dear Baby
DYEAR=1900
DGENRE=Pop
TTITLE0=ディア・ベイビー
TTITLE1=ティラノサウルス (live at Shibuya Club Quattro 1997.12.6)
TTITLE2=ディア・ベイビー (original karaoke)
EXTD=
EXTT0=
EXTT1=
EXTT2=
PLAYORDER=
